<svg width="914" height="400" fill="none" xmlns="http://www.w3.org/2000/svg"><path fill="#fff" d="M0 0h914v400H0z"/><path fill-rule="evenodd" clip-rule="evenodd" d="M405.869 189.111c-.977-.977-2.487-1.111-3.869-1.111a5 5 0 1 1 5-5c0 1.478.11 3.11 1.155 4.155l8.999 8.999c.722.722 1.825.846 2.846.846.917 0 1.896-.139 2.545-.788l9.344-9.343c.977-.977 1.111-2.487 1.111-3.869a5 5 0 1 1 5 5c-1.478 0-3.11.11-4.155 1.155l-8.999 8.999c-.722.722-.846 1.825-.846 2.846 0 1.021.124 2.124.846 2.846l8.999 8.999C434.89 213.89 436.522 214 438 214a5 5 0 1 1-5 5c0-1.382-.134-2.892-1.111-3.869l-9.344-9.343c-.649-.649-1.628-.788-2.545-.788-1.021 0-2.124.124-2.846.846l-8.999 8.999C407.11 215.89 407 217.522 407 219a5 5 0 1 1-5-5c1.382 0 2.892-.134 3.869-1.111l9.343-9.344c.649-.649.788-1.628.788-2.545s-.139-1.896-.788-2.545l-9.343-9.344ZM409 201a4 4 0 1 1-8 0 4 4 0 0 1 8 0Zm11 18a4 4 0 1 0 0-8 4 4 0 0 0 0 8Zm18-18a4 4 0 1 1-8 0 4 4 0 0 1 8 0Zm-18-11a4 4 0 1 0 0-8 4 4 0 0 0 0 8Z" fill="#333"/><path d="M467.122 210c.925 0 1.665-.74 1.665-1.665s-.74-1.665-1.665-1.665h-.888v-6.068c0-2.479 1.443-4.107 3.996-4.107a1.895 1.895 0 0 0 1.887-1.887 1.895 1.895 0 0 0-1.887-1.887c-1.554 0-3.293.925-3.996 2.368v-.185c0-1.036-.851-1.702-1.85-1.702h-3.034c-.925 0-1.665.74-1.665 1.665 0 .962.74 1.665 1.665 1.665h.888v10.138h-.888c-.925 0-1.665.74-1.665 1.665 0 .962.74 1.665 1.665 1.665h5.772Zm14.55.481c3.367 0 5.328-1.443 5.957-2.035.333-.296.629-.777.629-1.369 0-.962-.777-1.739-1.739-1.739-.481 0-.777.148-1.184.407-.888.592-2.035 1.147-3.663 1.147-2.442 0-4.329-1.221-4.329-3.885h9.139c2.257 0 2.257-1.591 2.257-2.96 0-2.553-1.147-7.363-7.4-7.363-5.032 0-7.992 3.182-7.992 8.843 0 6.179 3.182 8.954 8.325 8.954Zm3.108-10.804h-7.326c.185-2.368 1.739-3.589 3.885-3.589 2.405 0 3.441 1.776 3.441 3.589Zm7.6-6.475c-.925 0-1.665.74-1.665 1.665s.74 1.665 1.665 1.665h.888v17.575h-.888c-.925 0-1.665.74-1.665 1.665s.74 1.665 1.665 1.665h6.364c.925 0 1.665-.74 1.665-1.665s-.74-1.665-1.665-1.665h-1.48v-5.217c.888.999 2.516 1.591 4.366 1.591 4.81 0 7.511-2.886 7.511-8.917s-2.664-8.88-7.511-8.88c-2.072 0-3.811 1.295-4.366 2.22 0-1.11-.888-1.702-1.998-1.702h-2.886Zm8.732 13.875c-2.59 0-3.959-1.85-3.959-5.476 0-3.663 1.369-5.513 3.959-5.513s3.959 1.85 3.959 5.513c0 3.626-1.369 5.476-3.959 5.476Z" fill="#333"/></svg>